<mxfile host="Electron" agent="Mozilla/5.0 (Macintosh; Intel Mac OS X 10_15_7) AppleWebKit/537.36 (KHTML, like Gecko) draw.io/24.7.8 Chrome/128.0.6613.36 Electron/32.0.1 Safari/537.36" version="24.7.8">
  <diagram name="Page-1" id="hSCcwt5O6sV-UKc27sZZ">
    <mxGraphModel dx="1114" dy="1114" grid="1" gridSize="10" guides="1" tooltips="1" connect="1" arrows="1" fold="1" page="1" pageScale="1" pageWidth="850" pageHeight="1100" math="0" shadow="0">
      <root>
        <mxCell id="0" />
        <mxCell id="1" parent="0" />
        <mxCell id="5rC2K9jmM823qr7swGwl-2" value="&lt;font size=&quot;1&quot; style=&quot;&quot;&gt;&lt;b style=&quot;font-size: 20px;&quot;&gt;Structural &lt;font color=&quot;#3399ff&quot;&gt;Patterns&lt;/font&gt;&amp;nbsp;&lt;/b&gt;&lt;/font&gt;" style="rounded=1;whiteSpace=wrap;html=1;fillColor=#fff2cc;strokeColor=#d6b656;" vertex="1" parent="1">
          <mxGeometry x="330" y="190" width="140" height="70" as="geometry" />
        </mxCell>
        <mxCell id="5rC2K9jmM823qr7swGwl-3" value="&lt;font size=&quot;1&quot; style=&quot;&quot;&gt;&lt;b style=&quot;font-size: 20px;&quot;&gt;Creational&lt;/b&gt;&lt;/font&gt;&lt;div&gt;&lt;font size=&quot;1&quot; style=&quot;&quot;&gt;&lt;b style=&quot;font-size: 20px;&quot;&gt;&lt;font color=&quot;#3399ff&quot;&gt;Patterns&lt;/font&gt;&amp;nbsp;&lt;/b&gt;&lt;/font&gt;&lt;/div&gt;" style="rounded=1;whiteSpace=wrap;html=1;fillColor=#f8cecc;strokeColor=#b85450;" vertex="1" parent="1">
          <mxGeometry x="150" y="190" width="140" height="70" as="geometry" />
        </mxCell>
        <mxCell id="5rC2K9jmM823qr7swGwl-4" value="&lt;font size=&quot;1&quot; style=&quot;&quot;&gt;&lt;b style=&quot;font-size: 20px;&quot;&gt;Behavioral&lt;/b&gt;&lt;/font&gt;&lt;div&gt;&lt;font size=&quot;1&quot; style=&quot;&quot;&gt;&lt;b style=&quot;font-size: 20px;&quot;&gt;&lt;font color=&quot;#3399ff&quot;&gt;Patterns&lt;/font&gt;&amp;nbsp;&lt;/b&gt;&lt;/font&gt;&lt;/div&gt;" style="rounded=1;whiteSpace=wrap;html=1;fillColor=#ffe6cc;strokeColor=#d79b00;" vertex="1" parent="1">
          <mxGeometry x="510" y="190" width="140" height="70" as="geometry" />
        </mxCell>
        <mxCell id="5rC2K9jmM823qr7swGwl-7" style="edgeStyle=orthogonalEdgeStyle;rounded=0;orthogonalLoop=1;jettySize=auto;html=1;entryX=0.5;entryY=0;entryDx=0;entryDy=0;" edge="1" parent="1" source="5rC2K9jmM823qr7swGwl-5" target="5rC2K9jmM823qr7swGwl-2">
          <mxGeometry relative="1" as="geometry" />
        </mxCell>
        <mxCell id="5rC2K9jmM823qr7swGwl-5" value="&lt;div&gt;&lt;br&gt;&lt;/div&gt;&lt;span style=&quot;font-size: 20px;&quot;&gt;&lt;b&gt;Java Design&lt;/b&gt;&lt;/span&gt;&lt;br&gt;&lt;div&gt;&lt;font size=&quot;1&quot; style=&quot;&quot;&gt;&lt;b style=&quot;font-size: 20px;&quot;&gt;&lt;font color=&quot;#3399ff&quot;&gt;Patterns&lt;/font&gt;&amp;nbsp;&lt;/b&gt;&lt;/font&gt;&lt;/div&gt;" style="rounded=1;whiteSpace=wrap;html=1;fillColor=#d5e8d4;strokeColor=#82b366;" vertex="1" parent="1">
          <mxGeometry x="330" y="50" width="140" height="70" as="geometry" />
        </mxCell>
        <mxCell id="5rC2K9jmM823qr7swGwl-8" value="" style="endArrow=classic;html=1;rounded=0;" edge="1" parent="1">
          <mxGeometry width="50" height="50" relative="1" as="geometry">
            <mxPoint x="400" y="140" as="sourcePoint" />
            <mxPoint x="580" y="190" as="targetPoint" />
            <Array as="points">
              <mxPoint x="580" y="140" />
            </Array>
          </mxGeometry>
        </mxCell>
        <mxCell id="5rC2K9jmM823qr7swGwl-9" value="" style="endArrow=classic;html=1;rounded=0;entryX=0.5;entryY=0;entryDx=0;entryDy=0;" edge="1" parent="1" target="5rC2K9jmM823qr7swGwl-3">
          <mxGeometry width="50" height="50" relative="1" as="geometry">
            <mxPoint x="400" y="140" as="sourcePoint" />
            <mxPoint x="260" y="100" as="targetPoint" />
            <Array as="points">
              <mxPoint x="220" y="140" />
            </Array>
          </mxGeometry>
        </mxCell>
      </root>
    </mxGraphModel>
  </diagram>
</mxfile>
